<svg xmlns="http://www.w3.org/2000/svg" version="1.1" xmlns:xlink="http://www.w3.org/1999/xlink" xmlns:svgjs="http://svgjs.com/svgjs" width="1440" height="2800" preserveAspectRatio="none" viewBox="0 0 1440 2800"><g mask="url(&quot;#SvgjsMask10733&quot;)" fill="none"><rect width="1440" height="2800" x="0" y="0" fill="url(#SvgjsLinearGradient10734)"></rect><path d="M1049 116L70 -863" stroke-width="6" stroke="url(#SvgjsLinearGradient10735)" stroke-linecap="round" class="BottomRight"></path><path d="M1038 240L615 -183" stroke-width="8" stroke="url(#SvgjsLinearGradient10736)" stroke-linecap="round" class="TopLeft"></path><path d="M1146 29L287 -830" stroke-width="8" stroke="url(#SvgjsLinearGradient10736)" stroke-linecap="round" class="TopLeft"></path><path d="M1033 1006L1984 1957" stroke-width="10" stroke="url(#SvgjsLinearGradient10737)" stroke-linecap="round" class="TopLeft"></path><path d="M555 2657L1114 3216" stroke-width="8" stroke="url(#SvgjsLinearGradient10735)" stroke-linecap="round" class="BottomRight"></path><path d="M359 2166L-77 1730" stroke-width="6" stroke="url(#SvgjsLinearGradient10738)" stroke-linecap="round" class="BottomRight"></path><path d="M1134 1797L117 780" stroke-width="8" stroke="url(#SvgjsLinearGradient10739)" stroke-linecap="round" class="BottomRight"></path><path d="M1224 245L356 -623" stroke-width="8" stroke="url(#SvgjsLinearGradient10739)" stroke-linecap="round" class="BottomRight"></path><path d="M448 2773L1296 3621" stroke-width="6" stroke="url(#SvgjsLinearGradient10740)" stroke-linecap="round" class="TopLeft"></path><path d="M279 1777L-690 808" stroke-width="8" stroke="url(#SvgjsLinearGradient10741)" stroke-linecap="round" class="TopLeft"></path><path d="M126 1523L-712 685" stroke-width="8" stroke="url(#SvgjsLinearGradient10741)" stroke-linecap="round" class="TopLeft"></path><path d="M244 111L-261 -394" stroke-width="10" stroke="url(#SvgjsLinearGradient10737)" stroke-linecap="round" class="TopLeft"></path><path d="M153 2782L-450 2179" stroke-width="6" stroke="url(#SvgjsLinearGradient10738)" stroke-linecap="round" class="BottomRight"></path><path d="M100 2672L1017 3589" stroke-width="10" stroke="url(#SvgjsLinearGradient10741)" stroke-linecap="round" class="TopLeft"></path><path d="M932 1103L1756 1927" stroke-width="6" stroke="url(#SvgjsLinearGradient10742)" stroke-linecap="round" class="TopLeft"></path><path d="M1156 2521L2069 3434" stroke-width="8" stroke="url(#SvgjsLinearGradient10740)" stroke-linecap="round" class="TopLeft"></path><path d="M256 45L1267 1056" stroke-width="10" stroke="url(#SvgjsLinearGradient10743)" stroke-linecap="round" class="BottomRight"></path><path d="M1046 1293L1795 2042" stroke-width="6" stroke="url(#SvgjsLinearGradient10742)" stroke-linecap="round" class="TopLeft"></path><path d="M1253 1401L457 605" stroke-width="10" stroke="url(#SvgjsLinearGradient10740)" stroke-linecap="round" class="TopLeft"></path><path d="M47 1910L515 2378" stroke-width="8" stroke="url(#SvgjsLinearGradient10739)" stroke-linecap="round" class="BottomRight"></path><path d="M999 2378L2039 3418" stroke-width="6" stroke="url(#SvgjsLinearGradient10739)" stroke-linecap="round" class="BottomRight"></path><path d="M289 1322L809 1842" stroke-width="8" stroke="url(#SvgjsLinearGradient10735)" stroke-linecap="round" class="BottomRight"></path><path d="M980 1993L1563 2576" stroke-width="8" stroke="url(#SvgjsLinearGradient10743)" stroke-linecap="round" class="BottomRight"></path><path d="M492 1629L-377 760" stroke-width="8" stroke="url(#SvgjsLinearGradient10743)" stroke-linecap="round" class="BottomRight"></path><path d="M1041 1975L594 1528" stroke-width="10" stroke="url(#SvgjsLinearGradient10740)" stroke-linecap="round" class="TopLeft"></path><path d="M1433 2001L755 1323" stroke-width="8" stroke="url(#SvgjsLinearGradient10736)" stroke-linecap="round" class="TopLeft"></path><path d="M1040 131L230 -679" stroke-width="8" stroke="url(#SvgjsLinearGradient10737)" stroke-linecap="round" class="TopLeft"></path><path d="M938 1241L358 661" stroke-width="8" stroke="url(#SvgjsLinearGradient10742)" stroke-linecap="round" class="TopLeft"></path><path d="M948 551L1476 1079" stroke-width="10" stroke="url(#SvgjsLinearGradient10738)" stroke-linecap="round" class="BottomRight"></path><path d="M1079 30L1832 783" stroke-width="8" stroke="url(#SvgjsLinearGradient10742)" stroke-linecap="round" class="TopLeft"></path><path d="M651 610L3 -38" stroke-width="10" stroke="url(#SvgjsLinearGradient10736)" stroke-linecap="round" class="TopLeft"></path><path d="M260 601L1054 1395" stroke-width="8" stroke="url(#SvgjsLinearGradient10736)" stroke-linecap="round" class="TopLeft"></path><path d="M1232 2591L568 1927" stroke-width="6" stroke="url(#SvgjsLinearGradient10735)" stroke-linecap="round" class="BottomRight"></path><path d="M939 550L-100 -489" stroke-width="8" stroke="url(#SvgjsLinearGradient10743)" stroke-linecap="round" class="BottomRight"></path><path d="M892 1666L-117 657" stroke-width="10" stroke="url(#SvgjsLinearGradient10738)" stroke-linecap="round" class="BottomRight"></path><path d="M43 559L-897 -381" stroke-width="10" stroke="url(#SvgjsLinearGradient10743)" stroke-linecap="round" class="BottomRight"></path><path d="M672 977L146 451" stroke-width="8" stroke="url(#SvgjsLinearGradient10741)" stroke-linecap="round" class="TopLeft"></path><path d="M387 131L749 493" stroke-width="6" stroke="url(#SvgjsLinearGradient10736)" stroke-linecap="round" class="TopLeft"></path><path d="M400 2604L-521 1683" stroke-width="10" stroke="url(#SvgjsLinearGradient10742)" stroke-linecap="round" class="TopLeft"></path><path d="M1003 1488L1588 2073" stroke-width="6" stroke="url(#SvgjsLinearGradient10740)" stroke-linecap="round" class="TopLeft"></path><path d="M472 1576L1290 2394" stroke-width="10" stroke="url(#SvgjsLinearGradient10743)" stroke-linecap="round" class="BottomRight"></path><path d="M79 193L981 1095" stroke-width="8" stroke="url(#SvgjsLinearGradient10739)" stroke-linecap="round" class="BottomRight"></path><path d="M653 1299L1462 2108" stroke-width="8" stroke="url(#SvgjsLinearGradient10743)" stroke-linecap="round" class="BottomRight"></path><path d="M974 620L466 112" stroke-width="10" stroke="url(#SvgjsLinearGradient10743)" stroke-linecap="round" class="BottomRight"></path><path d="M206 553L-373 -26" stroke-width="6" stroke="url(#SvgjsLinearGradient10738)" stroke-linecap="round" class="BottomRight"></path><path d="M868 2052L268 1452" stroke-width="8" stroke="url(#SvgjsLinearGradient10739)" stroke-linecap="round" class="BottomRight"></path><path d="M727 1898L1714 2885" stroke-width="6" stroke="url(#SvgjsLinearGradient10737)" stroke-linecap="round" class="TopLeft"></path><path d="M367 2552L1184 3369" stroke-width="8" stroke="url(#SvgjsLinearGradient10741)" stroke-linecap="round" class="TopLeft"></path><path d="M589 2235L1159 2805" stroke-width="6" stroke="url(#SvgjsLinearGradient10741)" stroke-linecap="round" class="TopLeft"></path><path d="M46 1188L-988 154" stroke-width="6" stroke="url(#SvgjsLinearGradient10737)" stroke-linecap="round" class="TopLeft"></path><path d="M270 1449L1144 2323" stroke-width="8" stroke="url(#SvgjsLinearGradient10740)" stroke-linecap="round" class="TopLeft"></path><path d="M1306 1072L1775 1541" stroke-width="10" stroke="url(#SvgjsLinearGradient10744)" stroke-linecap="round" class="BottomRight"></path><path d="M741 2153L1137 2549" stroke-width="8" stroke="url(#SvgjsLinearGradient10743)" stroke-linecap="round" class="BottomRight"></path><path d="M1397 762L2176 1541" stroke-width="10" stroke="url(#SvgjsLinearGradient10742)" stroke-linecap="round" class="TopLeft"></path><path d="M660 2508L293 2141" stroke-width="6" stroke="url(#SvgjsLinearGradient10742)" stroke-linecap="round" class="TopLeft"></path><path d="M1344 1757L2031 2444" stroke-width="10" stroke="url(#SvgjsLinearGradient10739)" stroke-linecap="round" class="BottomRight"></path><path d="M853 1543L-119 571" stroke-width="6" stroke="url(#SvgjsLinearGradient10740)" stroke-linecap="round" class="TopLeft"></path><path d="M504 1415L-335 576" stroke-width="10" stroke="url(#SvgjsLinearGradient10737)" stroke-linecap="round" class="TopLeft"></path><path d="M245 2521L-569 1707" stroke-width="6" stroke="url(#SvgjsLinearGradient10737)" stroke-linecap="round" class="TopLeft"></path><path d="M213 2254L1216 3257" stroke-width="10" stroke="url(#SvgjsLinearGradient10740)" stroke-linecap="round" class="TopLeft"></path><path d="M491 2461L-219 1751" stroke-width="6" stroke="url(#SvgjsLinearGradient10735)" stroke-linecap="round" class="BottomRight"></path><path d="M271 827L-625 -69" stroke-width="6" stroke="url(#SvgjsLinearGradient10740)" stroke-linecap="round" class="TopLeft"></path><path d="M337 943L-430 176" stroke-width="8" stroke="url(#SvgjsLinearGradient10739)" stroke-linecap="round" class="BottomRight"></path><path d="M966 2638L86 1758" stroke-width="8" stroke="url(#SvgjsLinearGradient10738)" stroke-linecap="round" class="BottomRight"></path><path d="M324 2245L-411 1510" stroke-width="8" stroke="url(#SvgjsLinearGradient10736)" stroke-linecap="round" class="TopLeft"></path><path d="M173 1416L749 1992" stroke-width="8" stroke="url(#SvgjsLinearGradient10737)" stroke-linecap="round" class="TopLeft"></path><path d="M625 453L1681 1509" stroke-width="6" stroke="url(#SvgjsLinearGradient10735)" stroke-linecap="round" class="BottomRight"></path><path d="M728 801L242 315" stroke-width="10" stroke="url(#SvgjsLinearGradient10736)" stroke-linecap="round" class="TopLeft"></path><path d="M1051 394L1865 1208" stroke-width="6" stroke="url(#SvgjsLinearGradient10740)" stroke-linecap="round" class="TopLeft"></path><path d="M1216 1047L1969 1800" stroke-width="6" stroke="url(#SvgjsLinearGradient10738)" stroke-linecap="round" class="BottomRight"></path><path d="M1101 1075L2127 2101" stroke-width="6" stroke="url(#SvgjsLinearGradient10735)" stroke-linecap="round" class="BottomRight"></path><path d="M782 1896L1831 2945" stroke-width="8" stroke="url(#SvgjsLinearGradient10737)" stroke-linecap="round" class="TopLeft"></path><path d="M212 2110L-237 1661" stroke-width="8" stroke="url(#SvgjsLinearGradient10743)" stroke-linecap="round" class="BottomRight"></path><path d="M958 354L1616 1012" stroke-width="10" stroke="url(#SvgjsLinearGradient10735)" stroke-linecap="round" class="BottomRight"></path><path d="M842 1692L45 895" stroke-width="8" stroke="url(#SvgjsLinearGradient10738)" stroke-linecap="round" class="BottomRight"></path><path d="M1156 1472L694 1010" stroke-width="6" stroke="url(#SvgjsLinearGradient10744)" stroke-linecap="round" class="BottomRight"></path><path d="M908 2515L-36 1571" stroke-width="6" stroke="url(#SvgjsLinearGradient10735)" stroke-linecap="round" class="BottomRight"></path><path d="M1051 460L263 -328" stroke-width="6" stroke="url(#SvgjsLinearGradient10738)" stroke-linecap="round" class="BottomRight"></path><path d="M161 2660L-403 2096" stroke-width="8" stroke="url(#SvgjsLinearGradient10742)" stroke-linecap="round" class="TopLeft"></path></g><defs><mask id="SvgjsMask10733"><rect width="1440" height="2800" fill="#ffffff"></rect></mask><linearGradient x1="50%" y1="0%" x2="50%" y2="100%" gradientUnits="userSpaceOnUse" id="SvgjsLinearGradient10734"><stop stop-color="rgba(41, 0, 43, 1)" offset="0"></stop><stop stop-color="rgba(47, 0, 68, 1)" offset="0.1"></stop><stop stop-color="rgba(0, 8, 52, 1)" offset="0.63"></stop><stop stop-color="rgba(0, 6, 47, 1)" offset="0.78"></stop><stop stop-color="rgba(0, 10, 22, 1)" offset="0.89"></stop><stop stop-color="rgba(0, 12, 15, 1)" offset="1"></stop></linearGradient><linearGradient x1="0%" y1="0%" x2="100%" y2="100%" id="SvgjsLinearGradient10735"><stop stop-color="rgba(150, 150, 150, 0)" offset="0"></stop><stop stop-color="rgba(150, 150, 150, 0.15)" offset="1"></stop></linearGradient><linearGradient x1="100%" y1="100%" x2="0%" y2="0%" id="SvgjsLinearGradient10736"><stop stop-color="rgba(154, 52, 106, 0)" offset="0"></stop><stop stop-color="rgba(154, 52, 106, 0.26)" offset="1"></stop></linearGradient><linearGradient x1="100%" y1="100%" x2="0%" y2="0%" id="SvgjsLinearGradient10737"><stop stop-color="rgba(52, 55, 154, 0)" offset="0"></stop><stop stop-color="rgba(52, 55, 154, 0.15)" offset="1"></stop></linearGradient><linearGradient x1="0%" y1="0%" x2="100%" y2="100%" id="SvgjsLinearGradient10738"><stop stop-color="rgba(52, 147, 154, 0)" offset="0"></stop><stop stop-color="rgba(52, 147, 154, 0.15)" offset="1"></stop></linearGradient><linearGradient x1="0%" y1="0%" x2="100%" y2="100%" id="SvgjsLinearGradient10739"><stop stop-color="rgba(101, 52, 154, 0)" offset="0"></stop><stop stop-color="rgba(101, 52, 154, 0.15)" offset="1"></stop></linearGradient><linearGradient x1="100%" y1="100%" x2="0%" y2="0%" id="SvgjsLinearGradient10740"><stop stop-color="rgba(52, 147, 154, 0)" offset="0"></stop><stop stop-color="rgba(52, 147, 154, 0.15)" offset="1"></stop></linearGradient><linearGradient x1="100%" y1="100%" x2="0%" y2="0%" id="SvgjsLinearGradient10741"><stop stop-color="rgba(101, 52, 154, 0)" offset="0"></stop><stop stop-color="rgba(101, 52, 154, 0.15)" offset="1"></stop></linearGradient><linearGradient x1="100%" y1="100%" x2="0%" y2="0%" id="SvgjsLinearGradient10742"><stop stop-color="rgba(150, 150, 150, 0)" offset="0"></stop><stop stop-color="rgba(150, 150, 150, 0.15)" offset="1"></stop></linearGradient><linearGradient x1="0%" y1="0%" x2="100%" y2="100%" id="SvgjsLinearGradient10743"><stop stop-color="rgba(52, 55, 154, 0)" offset="0"></stop><stop stop-color="rgba(52, 55, 154, 0.15)" offset="1"></stop></linearGradient><linearGradient x1="0%" y1="0%" x2="100%" y2="100%" id="SvgjsLinearGradient10744"><stop stop-color="rgba(154, 52, 106, 0)" offset="0"></stop><stop stop-color="rgba(154, 52, 106, 0.26)" offset="1"></stop></linearGradient></defs></svg>